<?xml version="1.0" encoding="UTF-8"?>
<svg version="1.1" viewBox="0 0 2048 507" width="1280" height="1280" xmlns="http://www.w3.org/2000/svg">
<path transform="translate(1549,138)" d="m0 0h15l8 4 4 5 1 3v8l-4 11-6 11-10 15-9 12-8 10-12 14-14 15-24 24-8 7-14 12-5 5-3 12v18l4 8 4 2 8-1 10-5 14-11 16-15 9-10 7-16 9-21 10-22 10-19 9-16 12-19 11-14 9-10 7-7 10-7 9-3h14l8 4 4 5 1 2v11l-4 11-10 16-10 14-11 14-9 11-11 12-14 15-7 7-8 7-16 15-8 7-6 7-3 15v10l3 9 3 3 8 1 14-7 11-9 12-11 13-13 10-13 15-15 13-10 16-10 10-5 12-3h8l7 3 4 4 3 8-1 9-5 10-9 9-14 9-18 8-15 4h-6l-1-4 9-3 12-5 18-11 10-8 7-9 2-4v-9h-8l-12 5-13 9-10 9-12 12-9 13-6 12-2 6v13l3 5 5 3 11 1 12-2 17-7 16-9 14-11 9-9 11-14 11-15 13-21 1-3-5-1-1-1v-9l6-8 5-6 10-8 12-6h6l-2 6-9 16-6 10h38l9 4-2 7-9 12-11 14-9 14-8 15-5 15v9l1 4h7l8-4 14-11 12-11 9-9 16-25 9-10 7-8 9-6h6l8 5 2 4-17 16-8 8-8 11-6 13-3 13 1 7 2 3 7 1 9-3 9-6 15-15 9-11 13-15 12-16 13-16 9-10 10 3 7 4-1 7-14 31-16 36-6 13-1 4 13-10 10-8 10-9 12-11 1-2h2l2-4 9-10 3-1 1 5-10 13-24 24-8 7-11 9-13 10-5 2-2 5-25 50-13 22-11 13-11 11-9 6-9 3-11 1-9-2-8-6-3-5-1-8 3-10 6-11 9-11 16-16 30-23 24-16 4-2 2-6 12-24 14-32 8-19 2-6-1 1-10 12-8 11-8 10-9 11-9 10-8 7-10 7-10 4-9 1-10-2-8-6-3-6v-16l-8 7-11 11-15 11-10 4-12 2-9-3-5-6-2-6v-10l4-13 8-14 9-10 7-8 9-12 2-6-5-5-12-3h-10l-9 11-13 19-14 19-14 15-9 9-14 10-16 8-13 4-6 1h-15l-12-3-8-5-7-8-2-5v-12l1-2-6 4-1 2h-2v2l-8 7-12 10-10 6-7 2h-14l-8-3-6-7-3-8v-18l-5 5h-2l-2 4-15 14-13 9-11 4h-12l-9-3-5-4-4-8v-21l-8 7-7 7-16 11-15 8-13 4-6 1h-15l-12-3-10-6-6-9-1-3v-14l4-13 8-13 13-13 10-9 17-12 16-8 10-3h11l7 3 4 6 1 3v11l-5 10-12 12-13 8-19 8-11 3h-8l-1-4 9-3 10-4 15-8 12-9 9-9 3-5 1-8-1-3h-8l-16 8-13 10-10 9-9 11-8 11-6 13-2 8v7l4 7 5 3h18l13-4 16-8 10-6 9-7 12-11 8-10 8-20 5-12 16-34 13-24 12-19 9-12 12-14 10-9 10-6zm8 9-9 6-12 11-8 8-13 17-11 17-10 18-11 20-12 27-2 7 5-2 11-10 8-7 8-8 7-8 12-14 11-14 14-19 12-19 9-17 1-3v-7l-3-3zm82-1-7 3-9 7-12 11-9 11-9 12-11 17-14 25-12 24-9 21 1 2 9-7 13-12 15-15 9-11 11-13 12-16 13-19 9-15 6-13v-9l-5-3zm263 190m-36 30-6 4-14 11-16 13-12 11-10 9-10 13-4 10v11l4 5 2 1 10-1 9-6 6-5 9-11 10-15 8-16 15-31z" fill="#2B292C"/>
<path transform="translate(463,138)" d="m0 0h14l8 4 4 5 1 3v8l-5 14-7 11-11 16-10 13-11 13-9 11-33 33-8 7-14 12-6 7-3 10v19l3 6 3 3 5 1 11-4 13-9 11-10 6-5 14-16 8-11 10-15 7-16 6-5 9 1 3 2-1 8-10 24-8 21-4 10 6-5 9-11 14-15 21-21 13-10 14-8 6 1 5 3 1 2v7l-5 13-11 23 1 1 11-10 15-11 15-8 14-4h7l1 3-14 27-7 19-2 8v13l3 6 7 1 14-7 14-12 16-16 8-10 9-10 10-9 16-12 19-11 11-5 6-2 7-1h17l8 3 6 7 2 6-15-6h-10l-16 4-17 9-14 10-13 12-11 14-8 13-3 10 1 9 4 3 7-1 8-4 9-7 13-11 12-11 16-16 7-8 12-12 3-2h7l8 4-1 5-8 13-7 16-4 18v10l3 6 2 1h6l11-6 14-11 10-10h2l2-4 7-7 7-9 5-1 1 2-7 11-12 13-3 4h-2v2l-8 7-11 9-10 6-10 3-9 1-6-2-7-6-3-8v-12l3-16 3-8-5 5-16 17-12 11-14 10-10 4-8 1-9-2-9-7-5-7-3-10-10 10-11 9-11 7-15 4-9-1-6-4-4-5-2-7 1-17 4-16 9-22-10 5-14 11-14 13-7 8-8 9-5 3-6-1-2-5 5-14 17-34 1-7-7 2-14 10-14 14-10 13-11 14-9 12-9 11-6 5-13 4-1-4 15-43 3-10-7 9-10 11-1 2h-2l-1 3h-2l-2 4-10 9-12 10-12 6-4 1h-14l-9-4-6-8-2-9 1-16-22 22-12 9-13 6-4 1h-16l-6-4-5-9-2-7v-25l4-22 1-4-15-1-16-2h-9l-8 9-8 10-12 13-7 8-13 14h-2v2l-8 7-10 9-15 11-17 9-13 4-21 2-14-2-16-8-6-7-4-8-1-5v-11l1-2h5l1 4 2 12 4 6 10 5 11 2 18-1 17-5 16-8 11-7 13-11 10-9 28-28 7-8 8-9-19-3-34-3h-21l-16 3-12 6-5 4-6 9-3 7v9l1 6-4 1-4-4-2-6v-15l2-11 4-8 8-9 10-5 7-2 9-1h22l29 4 38 7h5l10-11 9-11 13-16 9-11 13-16 22-28 13-16 6-5 8-3h11l-1 5-13 25-8 16-9 20-10 27-6 19-4 16h20l9-2 10-6 4-4 3 1-2 6-8 7-11 4-6 1-22 1-4 21-2 21 1 13 3 5 7 1 8-3 12-7 9-7 10-9 14-14 6-9 14-34 15-31 13-23 9-15 12-16 11-13 10-9 10-6zm7 9-9 6-10 9-10 10-13 17-11 17-12 21-15 30-8 19v2l5-2 13-12 8-7 8-8 9-11 9-10 13-17 13-18 11-18 8-16 1-9-2-3zm-157 29-12 15-10 14-13 17-14 18-13 17-1 3 9 2 24 4 2-2 9-30 11-33 9-22z" fill="#333134"/>
<path transform="translate(341,139)" d="m0 0h11l-1 5-13 25-8 16-9 20-10 27-6 19-4 16h20l9-2 10-6 4-4 3 1-2 6-8 7-11 4-6 1-22 1-3 7-2 10-2 1-2 15v20l4 8 1 4h-6l-8-7-3-10v-25l4-22 1-4-15-1-16-2h-9l-8 9-8 10-12 13-7 8-13 14h-2v2l-8 7-10 9-15 11-17 9-13 4-21 2-14-2-16-8-6-7-4-8-1-5v-11l1-2h5l1 4 2 12 4 6 10 5 11 2 18-1 17-5 16-8 11-7 13-11 10-9 28-28 7-8 8-9-19-3-34-3h-21l-16 3-12 6-5 4-6 9-3 7v9l1 6-4 1-4-4-2-6v-15l2-11 4-8 8-9 10-5 7-2 9-1h22l29 4 38 7h5l10-11 9-11 13-16 9-11 13-16 22-28 13-16 6-5zm-28 37-12 15-10 14-13 17-14 18-13 17-1 3 9 2 24 4 2-2 9-30 11-33 9-22z" fill="#0D0C0D"/>
<path transform="translate(1308,221)" d="m0 0h16l8 3 6 6 2 8v10l-3 12-4 9-9 16-13 16-12 13-14 12-13 9-10 4-5 1h-10l-9-3-5-4-4-10v-30l-10 16-8 10-13 13-12 6-11 1-9-2-7-6-4-10v-12l1-5-8 7-8 8-15 11-17 9-14 4-6 1h-14l-12-3-9-5-6-8-2-5v-15l5-14 7-11 12-13 11-9 14-10 16-9 8-3 6-1h10l8 4 4 8v11l-5 10-4 5h-2v2l-12 9-16 8-14 5-8 2h-6l-1-4 8-3 12-5 16-9 11-9 7-7 4-9v-7h-7l-11 4-11 7-10 8-10 9-10 12-8 13-5 12-1 11 3 7 6 4 9 1 13-2 16-6 16-9 14-11 10-9 10-13 13-21 10-14 8-9 6-2h8l8 2-1 5-12 13-11 14-10 16-7 15-3 11v11l5 3 8-1 10-6 12-11 9-10 10-14 11-17 9-15 2-2 10 1 8 3-1 6-9 20-5 16-2 11v13l3 6 2 1h8l16-8 11-9 10-9 11-13 9-14 7-15 2-8v-17l-4-9-6-3-11-1 2-4z" fill="#282629"/>
<path transform="translate(1549,138)" d="m0 0h15l8 4 4 5 1 3v8l-4 11-6 11-10 15-9 12-8 10-12 14-14 15-24 24-8 7-14 12-5 5-3 12v18l4 8 4 2 8-1 6-1h3l9-6 2 1-3 1-1 3-5 3h-3l-1 5-9 3h-12l-9-3-5-4-4-8v-21l-8 7-7 7-16 11-15 8-13 4-6 1h-15l-12-3-10-6-6-9-1-3v-14l4-13 8-13 13-13 10-9 17-12 16-8 10-3h11l7 3 4 6 1 3v11l-5 10-12 12-13 8-19 8-11 3h-8l-1-4 9-3 10-4 15-8 12-9 9-9 3-5 1-8-1-3h-8l-16 8-13 10-10 9-9 11-8 11-6 13-2 8v7l4 7 5 3h18l13-4 16-8 10-6 9-7 12-11 8-10 8-20 5-12 16-34 13-24 12-19 9-12 12-14 10-9 10-6zm8 9-9 6-12 11-8 8-13 17-11 17-10 18-11 20-12 27-2 7 5-2 11-10 8-7 8-8 7-8 12-14 11-14 14-19 12-19 9-17 1-3v-7l-3-3z" fill="#090809"/>
<path transform="translate(1041,138)" d="m0 0 5 1v3l-10 7-1 2 10 3 8 4 4 5 1 5-7-1-25-6-1 5-9 29-9 34v1l17-4 10-1 5 3 1 3-14 1-16 4-5 3-12 29-12 25-10 17-10 14-9 11-10 11-8 7-12 9-15 8-13 4h-16l-10-4-8-9-2-5v-18l5-12 6-11 9-11 9-10 12-11 14-11 15-10 22-12 21-9 17-6 12-36 8-21 8-18-11 1-27 2-21 4-16 6-11 7-6 7-3 9 1 9 4 6 8 6 8 5v3l-6-1-11-6-7-7-5-10-1-5v-13l4-10 7-8 14-9 13-5 20-4 9-1h30l8 1h9l11-8zm-57 104-22 9-23 12-17 12-13 12-12 12-10 13-8 14-4 12v13l3 7 5 5 4 2h9l10-3 10-6 10-9 11-12 14-19 14-24 11-22 10-25v-3z" fill="#060506"/>
<path transform="translate(1924,238)" d="m0 0 10 3 7 4-1 7-14 31-16 36-6 13-1 4 13-10 10-8 10-9 12-11 1-2h2l2-4 9-10 3-1 1 5-10 13-24 24-8 7-11 9-13 10-5 2-2 5-25 50-13 22-11 13-11 11-9 6-9 3-11 1-9-2-8-6-3-5-1-8 3-10 6-11 9-11 16-16 30-23 24-16 4-2 2-6 12-24 14-32 8-19 2-6-1 1-10 12-8 11-8 10-9 11-9 10-9 4-5 4-5 2v-3l15-15 6-5 3-5h3l2-4 4-5h2l2-4 2-3h2l2-4 9-12v-5l10-12 9-11zm-22 98m-36 30-6 4-14 11-16 13-12 11-10 9-10 13-4 10v11l4 5 2 1 10-1 9-6 6-5 9-11 10-15 8-16 15-31z" fill="#070608"/>
<path transform="translate(1767,207)" d="m0 0h6l-2 6-9 16-6 10h38l9 4-2 7-9 12-11 14-9 14-8 15-5 15v9l1 4h7l8-4 14-11 12-11 9-9 16-25 9-10 7-8 9-6h6l8 5 2 4-17 16-8 8-8 11-6 13-3 13 1 7 2 3 7 1 9-3 9-6 15-15 9-11 13-15 10-13 2 1-2 5-8 10-2 3h-2l-2 4-2 3h-2l-1 3h-2l-3 6-4 2-3 5-13 12-5 6h-2l1 2 12-8 3 1-7 7-12 7-6 2-9 1-10-2-8-6-3-6v-16l-8 7-11 11-15 11-10 4-12 2-9-3-5-6-2-6v-10l4-13 8-14 9-10 7-8 9-12 2-6-5-5-12-3v-2l-12 1-4 3-3-1v-3h-5l-2-2v-9l6-8 5-6 10-8z" fill="#3F3D40"/>
<path transform="translate(713,238)" d="m0 0h17l8 3 6 7 2 6-15-6h-10l-16 4-17 9-14 10-13 12-11 14-8 13-3 10 1 9 4 3 7-1 8-4 9-7 13-11 12-11 16-16 7-8 12-12 3-2h7l8 4-1 5-8 13-7 16-4 18v10l3 6 2 1h6l11-6 14-11 10-10h2l2-4 7-7 7-9 5-1 1 2-7 11-12 13-3 4h-2v2l-8 7-11 9-10 6-10 3-9 1-6-2-7-6-3-8v-12l3-16 3-8-5 5-16 17-12 11-14 10-10 4-8 1-9-2-9-7-5-7-3-10h-3l2-5 4-5h2l2-5 10-11 2-3h2l2-4 3-1 2-4 7-6 1-2 7-4 4-6 19-11 11-5 6-2z" fill="#100F11"/>
<path transform="translate(463,138)" d="m0 0h14l8 4 4 5 1 3v8l-5 14-7 11-11 16-10 13-11 13-9 11-33 33-8 7-14 12-6 7h-2l-2 7h-2v22l4 9 5 3 6 1v1l-10 1-7-3-5-5-2-4v-25l-3-2 11-21 7-17 8-18 12-24 7-13 11-19 4-7-1-3 13-16 9-10 10-8 10-5zm7 9-9 6-10 9-10 10-13 17-11 17-12 21-15 30-8 19v2l5-2 13-12 8-7 8-8 9-11 9-10 13-17 13-18 11-18 8-16 1-9-2-3z" fill="#040304"/>
<path transform="translate(1628,138)" d="m0 0h14l8 4 4 5 1 2v11l-4 11-10 16-10 14-11 14-9 11-6 3-3-1 3-5 9-11 8-11 8-12v-5l8-13 6-13v-9l-5-2-7 3-9 7-11 10-9 11-9 12-11 17-14 25-12 24-10 23h2l-1 4-4 5h-2l-2 4-4 11v21l3 8 5 3 10 2v1l-10 1h-9l-6-4-3-7-1-5v-19l-4-1 10-16 10-24 9-20 9-19 9-16 6-11 4-7v-5l10-14 11-13 10-10 10-7z" fill="#080708"/>
<path transform="translate(341,139)" d="m0 0h11l-1 5-13 25-8 16-9 20-10 27-6 19-4 16h20l9-2 10-6 4-4 3 1-2 6-8 7-11 4-6 1-22 1-3 7-2 10-2 1-2 15v20l4 8 1 4h-6l-6-6-3-8-1-8v-17l3-19 2-3 1-10 4-8 4-13 14-44 3-7 4-20h-3l1-5 6-8 5-7-2 1 1-4 10-11z" fill="#030204"/>
<path transform="translate(995,158)" d="m0 0h20l3 1-1 8-15 39-8 25-5 8-2 13-5 11-10 23-8 14-6 10-7 11-11 14-3 4h-2l-2 4-14 14-5 4h-2l1 3 2 2-16 7-5 1h-16l-10-4-8-9-2-5v-18l5-12 6-11 9-11 9-10 12-11 14-11 15-10 22-12 21-9 17-6 12-36 8-21 8-18-11 1-27 2-12 2h-5l4-1v-2l10-2zm-11 84-22 9-23 12-17 12-13 12-12 12-10 13-8 14-4 12v13l3 7 5 5 4 2h9l10-3 10-6 10-9 11-12 14-19 14-24 11-22 10-25v-3z" fill="#302E31"/>
<path transform="translate(1124,238)" d="m0 0h10l8 4 4 8v11l-5 10-4 5h-2v2l-12 9-16 8-14 5-8 2h-6l-1-4 8-3 12-5 16-9 11-9 7-7 4-9v-7h-7l-11 4-11 7-10 8-10 9-10 12-7 8-5 10-2 6h-2v15l4 7v3l-6-2-10-5-4-8v-15l5-14 7-11 12-13 11-9 14-10 16-9 8-3z" fill="#050405"/>
<path transform="translate(1767,207)" d="m0 0h6l-2 6-9 16-6 10h38l9 4-2 7-9 12-6 5-9 12-10 17-7 15-2 8h-2v9l2 6 6 3-3 2-4 1-9-1-7-5-1-3v-16l2-9 8-14 9-10 7-8 9-12 2-6-5-5-12-3v-2l-12 1-4 3-3-1v-3h-5l-2-2v-9l6-8 5-6 10-8z" fill="#060506"/>
<path transform="translate(588,256)" d="m0 0h7l1 3-14 27-7 19-2 8v13l3 6 7 1 14-7 14-12 16-16 8-10 9-10 10-9 13-10 2 1-7 7h-3l-2 4-7 6-6 7-5 5-10 12-8 10-1 2 2 1-9 9-11 9-11 7-15 4-9-1-6-4-4-5-2-7 1-17 4-16 9-22-10 5-14 11-14 13-7 8-8 9-5 3-6-1-2-5 5-14 14-28 1 3-12 24-5 13v4l6 1 9-11 8-8 1-4-1-1v-6l1-2h2l2-4-1 5v3l11-10 15-11 15-8z" fill="#050405"/>
<path transform="translate(1676,240)" d="m0 0h13l7 6 2 4v10l-4 12-9 9-14 9-18 8-15 4h-6l-1-4 9-3 12-5 18-11 10-8 7-9 2-4v-9h-8l-12 5-13 9-10 9-12 12-9 13-5 6-4 11h-2v13l3 6 3 4v2l-9-2-9-8-2-15v-7h-3l1-7 10-9 9-11 8-8 11-9 9-7 6-3 4-5 10-5z" fill="#060506"/>
<path transform="translate(1413,240)" d="m0 0h13l6 5 2 5v13l-2 4-8 7-7 7-7 6-4 4-19 8-11 3h-8l-1-4 9-3 10-4 15-8 12-9 9-9 3-5 1-8-1-3h-8l-16 8-13 10-10 9-9 11-4 5-5 5-6 12-1 3h-2v17l4 6 2 4h-6l-6-4-6-6-1-17 2-10 7-14 11-12 7-7 17-13 13-8 12-5h2v-2z" fill="#070607"/>
<path transform="translate(1413,238)" d="m0 0h11l7 3 4 6 1 3v11l-5 10-12 12-8 5-2-1 5-5 10-9 6-6h2l1-4v-13l-3-6-4-3h-17v2l-18 8-17 12-13 11-10 10-7 11-4 10-1 7 1 17 1 3 4 2 6 4 6 1-6-8-1-2v-13l1-4h2l1-5 6-11 4-4-2 5-7 14-2 8v7l4 7 5 3h18l13-4 16-8 10-6 9-7 12-11 8-10 5-12 2 3-1 6-7 11v4l1 28 5 6 6 3 5 1h8l11-2-2 2-7 2h-12l-9-3-5-4-4-8v-21l-8 7-7 7-16 11-15 8-13 4-6 1h-15l-12-3-10-6-6-9-1-3v-14l4-13 8-13 13-13 10-9 17-12 16-8z" fill="#2F2D30"/>
<path transform="translate(1197,241)" d="m0 0h8l8 2-1 5-12 13-11 14-9 14-3 3-6 12-3 10v16l-2 2-5-3-2-4-1-18v-6l-3-1 8-12 8-13v-6l12-17 8-9z" fill="#040304"/>
<path transform="translate(416,180)" d="m0 0h3l-2 5-7 11-6 11-12 23-8 16-12 27-5 12-8 15 3 2v25l3 5v2l4 2 8 3h12l9-2-4 3-7 2h-14l-9-4-6-8-2-9 1-16-22 22-12 9-13 6-4 1h-16l-6-4-2-5 6 5 6 1-6-12v-20l2-15 3-1v-7l3-9 1 3-4 25-1 20 2 8 2 3 7 1 8-3 12-7 9-7 10-9 14-14 6-9 14-34 15-31 13-23 9-15z" fill="#302E31"/>
<path transform="translate(920,272)" d="m0 0 2 1-4 2-1 3-6 4-9 9-2 4h-2l-2 5-6 7-3 7-6 10-4 10-1 4v13l3 7 4 4 4 2v2h20l-2 3-9 4-2 1h-16l-10-4-6-6-1-4v-21l6-15 8-12 11-12 13-13 12-10 4-4z" fill="#0D0C0E"/>
<path transform="translate(538,241)" d="m0 0h6l4 4v7l-5 13-8 16h-2l-1 4h-2v8l1 3-7 8-10 11-2 3-6-1-1-5 5-13 12-24 3-9 1-7-7 2-3 2-5-1 2-4 10-8 6-5z" fill="#050406"/>
<path transform="translate(487,146)" d="m0 0 2 1 1 3v8l-5 14-7 11-11 16-10 13-11 13-9 11-33 33-8 7-14 12-6 7-2-4 5-5 3-5-3-2 3-11 12-25 8-16 11-21 7-10 7-11 6-3-2 4-10 15-11 19-12 23-12 25-4 10 6-4 12-11 8-7 7-7 9-11 9-10 13-17 13-18 3-3v4l-4 6-2 6 5-4 15-22 7-11 4-13z" fill="#2C2A2D"/>
<path transform="translate(472,246)" d="m0 0 6 1 1 5-9 19-4 12-5 12-5 15 5 1 8-10 8-7h2v2h-2v3h-2l-2 5-10 13-7 9-6 8-6 5-7 3h-3l1-7 4-9h2l3-10 7-21 2-9-3-4 11-18 6-14z" fill="#030203"/>
<path transform="translate(1245,255)" d="m0 0 10 1 8 3-1 6-4 5-6 13-6 20-1 5h-2v16l4 9 2 2-5 1-7-4-4-5-1-5v-32h-3l1-6 10-16 1-4 1-5z" fill="#070607"/>
<path transform="translate(1851,249)" d="m0 0h6l8 5-2 6-3 3-6 3-10 10-1 3-6 5-4 6-8 20h-2v17l4 5v2h-6l-6-5-2-5-2-16-1-3 5-10 7-10 10-14 6-9 9-9z" fill="#040304"/>
<path transform="translate(1308,221)" d="m0 0h16l8 3 6 6 2 8v10l-3 12-4 9-9 16-9 11-6 2 2-6 5-8-2 1 1-4 8-17 2-8v-17l-4-9-6-3-11-1 2-4z" fill="#171617"/>
<path transform="translate(1546,193)" d="m0 0 1 2-5 10-3 4h-2l-2 5-6 8-1 2 6-2v-2l3-1-2 4-11 12-7 8-27 27-8 7-14 12-5 5-3 12v18l4 8 4 3-4 1-5-5-3-7v-15l4-16 5-5 6-7-3-1 1-10 3-10 10-19 5-9h2l1-3 1 2-8 16-9 19-4 11 5-3 10-9 8-7 7-7 7-8 12-14 11-14 14-19z" fill="#2B292C"/>
<path transform="translate(1259,267)" d="m0 0 1 2-7 16-5 16-2 11v13l3 6 2 1h8l16-8 11-9 10-9 11-13 6-9 4-1-2 5-4 5-2 5 5-1-6 7-7 8-11 10-16 12-12 5-5 1h-10l-9-3-5-4-4-10v-32h2v19l1 15 1 3 8 6 6 1-4-8-1-3v-9l1-7h2l1-8 5-17z" fill="#363437"/>
<path transform="translate(536,239)" d="m0 0 6 1-4 2-9 4-8 7-8 6-2 3 4 2-11 8-13 13-10 13-11 14-9 12-9 11-6 5-13 4-1-4 2-3v5l10-4h2l2-4h2l2-4 12-15 8-11 3-5h2v-3h2v-2l-10 8-8 10-6-1 4-13 5-14 4-10 5-10 2-1-1 7-11 29-4 10 6-5 9-11 14-15 21-21 13-10z" fill="#2B292C"/>
<path transform="translate(1740,246)" d="m0 0 2 3 5-2 1-1h12v1l-10 1-9 11-13 19-14 19-14 15-9 9-14 10-7 4-9 1-4 1 1-4 3-1v-2l17-9 12-9 10-9 9-10 12-16 10-15 8-13z" fill="#323033"/>
<path transform="translate(667,259)" d="m0 0 2 1-7 7h-3l-2 4-7 6-6 7-5 5-10 12-8 10-1 2 2 1-9 9-11 9-11 7-15 4-9-1-6-4-2-4 5 2 3 2h11l2-1-7-3-3-6v-17l1-3h2l1-7 6-16 9-17 2-1-2 6-8 16-6 16-2 8v13l3 6 7 1 14-7 14-12 16-16 8-10 9-10 10-9z" fill="#363437"/>
<path transform="translate(1629,186)" d="m0 0 2 1-2 5-14 20-9 11-3 5 7-2-4 6-10 10-7 8-10 10-8 7-16 15-8 7-6 7-3 15v10l2 9-3-3v-3h-2v-21l5-12 2-3h2l2-4 2-2v-4l9-7 13-12 14-14 9-11 11-13 12-16z" fill="#2A282B"/>
<path transform="translate(962,247)" d="m0 0 1 3-5 4-19 10-17 12-13 12-11 11-8 10-1-2 8-10 3-3 3-5 10-10 4-2 3-4-3 1-2-1-2 4-8 6-8 7h-2l-2 4-14 14-9 13-6 12-2 6v23l-3-3-1-3v-18l5-12 6-11 9-11 9-10 12-11 14-11 10-7 8-3 16-9 9-4h6z" fill="#262427"/>
<path transform="translate(311,184)" d="m0 0 1 3-3 13-4 11-12 37-5 16-3 5-1 10-2 3-3 19v17l2 11 1 5-2-1-3-10v-25l4-22 1-4-15-1-16-2h-9l-8 9-4 4-1-3 11-12 4-2h6l-2-2v-5h2v2l27 4 6 1 3-8 9-30 12-34z" fill="#333134"/>
<path transform="translate(792,285)" d="m0 0 4 1-4 8-11 13-7 8h-2v2l-8 7-11 9-10 6-10 3-9 1-6-2-4-4 7 1h12l-8-5-1-4 2-3 3 6 2 1h6l11-6 14-11 10-10h2l2-4 7-7 7-9z" fill="#2F2D30"/>
<path transform="translate(1865,255)" d="m0 0 2 1-2 4-15 14-8 8-8 11-6 13-3 13 1 7 2 3 7 1 9-3 9-6 15-15 9-11 13-15 10-13 2 1-2 5-8 10-2 3h-2l-2 4-2 3h-2l-1 3h-2l-3 6-4 2-3 5-13 12-5 6h-2l1 2 12-8 3 1-3 3-7 4-13 7-4 1h-13l-4-3h6l-5-7v-13l1-4h2l1-5 5-11 3-7 7-8h2l1-4 11-11 6-3z" fill="#242225"/>
<path transform="translate(1413,238)" d="m0 0h11l7 3 4 6 1 3v11l-5 10-12 12-8 5-2-1 5-5 10-9 6-6h2l1-4v-13l-3-6-4-3h-17v2l-18 8-17 12-13 11-10 10-7 11-4 10-1 7 1 17 1 3 4 2 8 5 5 2-4 1-11-6-6-8-2-5v-14l4-13 8-13 13-13 10-9 17-12 16-8z" fill="#232124"/>
<path transform="translate(588,256)" d="m0 0h7l1 3-2 2v-3l-14 2v2l-9 4 2 3-4 4-1-2-13 8-11 9-13 12-7 8-8 9-5 3-6-1-2-5 5-14 14-28 1 3-12 24-5 13v4l6 1 9-11 8-8 1-4-1-1v-6l1-2h2l2-4-1 5v3l11-10 15-11 15-8z" fill="#2E2C2F"/>
<path transform="translate(1240,262)" d="m0 0 2 4-10 17-3 7h3l1 32 1 7-2-1-1-3-1-20 1-14h-2l-2 6-11 16-9 10-3 3-5 3-2 2-11 3 2-4 9-7 8-9 3-5 11-14 8-12 11-18z" fill="#262427"/>
<path transform="translate(1964,281)" d="m0 0 2 1-1 6-11 13-22 22-8 7-11 9-13 10-5 2 3-5 2-1 2 1 2-4h3l2-4 4-4h2l1-2 2 1v-2h2l1-3-5 2-5 4-6 2 5-5 16-13 10-9 12-11 1-2h2l2-4 9-10z" fill="#282629"/>
<path transform="translate(1072,293)" d="m0 0 1 2-8 16-2 8 1 10 4 5 4 2 9 1 13-2 16-6 14-8 2 1-9 6-6 2-1 3-9 4 5-1 10-4 6-1-4 3-13 6-11 3-6 1h-14l-12-3-9-5-2-4 6 2 8 4-5-10v-12l1-3h2l1-6 5-10z" fill="#373538"/>
<path transform="translate(1893,313)" d="m0 0 1 3-2 8-8 18-7 12-9 7-5 4 3 2-6 4-5 3 1-4-15 10-11 8h-2v2l-11 7-22 22v-3l11-12 11-11 30-23 24-16 4-2 2-6 12-24z" fill="#333134"/>
<path transform="translate(1142,244)" d="m0 0 3 3 1 3v11l-5 10-4 5h-2v2l-12 9-16 8-14 5-8 2h-6l-1-4 8-3 12-5 16-9 11-9 7-7 4-9 1 4-2 6-9 10-15 12h-2v2l12-6 6-4 3-1 7-8 3-3 4-9v-8z" fill="#282629"/>
<path transform="translate(1621,300)" d="m0 0 1 2-5 13v13l3 5 5 3 11 1 12-2 10-4 3 1-3 2v2l8-2 2 2-16 6-10 2h-15l-12-3-8-5-7-8-2-5v-12h1l2 14 4 6 8 6 7 2-5-7-2-5v-11l1-2h2l1-6z" fill="#343235"/>
<path transform="translate(330,180)" d="m0 0 1 2-12 28-10 28-8 27v2h20l9-2 10-6 4-4 3 1-2 6-8 7-11 4-6 1h-22l4-5-3-1 1-8 7-25 11-29 11-25z" fill="#5F5D60"/>
<path transform="translate(1628,150)" d="m0 0 2 1-15 13-9 10-10 13-13 20-14 25-12 24-9 21v3h-3l1-8 8-20 8-14 8-16 6-11 12-18 5-8h2l2-4 7-9 9-10 7-7 5-2v-2z" fill="#363437"/>
<path transform="translate(322,156)" d="m0 0v3l-9 11-3 7 2 1-12 16-14 19-10 13-1-3 12-16 3-5h-3l-5 7-6 2 6-8 14-17 13-17 10-12z" fill="#2D2B2E"/>
<path transform="translate(1689,258)" d="m0 0h1l-1 7-6 8h-2l-2 4-14 10-6 4h-2v2l9-3 8-4 5-5 8-7 5-3 3-3-2 5-8 8-14 9-18 8-15 4h-6l-1-4 9-3 12-5 18-11 10-8 7-9z" fill="#242225"/>
<path transform="translate(1178,289)" d="m0 0 1 2-7 15-3 11v11l5 3 8-1 10-6 12-11 2-1-2 4-10 11-7 5-1 2 6-3 6-2 3-3 2 1-8 7-9 4-11 1-9-2-7-6-4-10v-12l1-5-2-1h3l1 20 2 5 6 3 1-2v-15l4-12 6-12z" fill="#413F42"/>
<path transform="translate(1023,166)" d="m0 0 1 3-10 33-7 27v1l17-4 10-1 5 3 1 3-14 1-16 4-5 3-7 17-2-3 1-5 6-11 2-2-1-4v-7l3-11 3-1 1-8 3-12 8-24z" fill="#29272A"/>
<path transform="translate(1427,252)" d="m0 0h1v7l-6 12-11 10-12 8 10-1-3 3-19 8-11 3h-8l-1-4 9-3 10-4 15-8 12-9 9-9 3-5z" fill="#2B292C"/>
<path transform="translate(1678,238)" d="m0 0h8l7 3 4 4 3 8-1 9-3 6-1-2 2-6v-10l-1-4-4-2-1-3h-15l-16 5-7 5-5 5-7 4-13 11-10 9-12 14-8 7-10 10-2-1 16-16 10-13 15-15 13-10 16-10 10-5z" fill="#383639"/>
<path transform="translate(1580,249)" d="m0 0v3l-6 9-5 3 1 1 2 1-7 7-8 7-12 11-4 5-3 15v10l2 9-3-3v-3h-2v-21l5-12 2-3h2l2-4 2-2v-4l9-7 13-12z" fill="#343335"/>
<path transform="translate(910,274)" d="m0 0 2 1-9 10-6 5h-2l-2 4-14 14-9 13-6 12-2 6v23l-3-3-1-3v-18l5-12 6-11 9-11 9-10 12-11z" fill="#2B292C"/>
<path transform="translate(995,158)" d="m0 0h20l3 1-1 8-11 28-3 3-11 33-2 2 2-9 12-36 11-26 1-2-11 1-27 2-12 2h-5l4-1v-2l10-2z" fill="#424043"/>
<path transform="translate(1041,138)" d="m0 0 5 1v3l-10 7-1 2 10 3 8 4 2 3-4-1v-2l-16-4-3-2v-2h-18v-2h-24l-17 1-21 4-8 1 3-2 16-4 16-2h30l8 1h9l11-8z" fill="#484649"/>
<path transform="translate(432,182)" d="m0 0v3l-9 13-12 20-14 27-11 23-2 5-3 1 1-6 12-25 8-16 11-21 7-10 7-11z" fill="#39373A"/>
<path transform="translate(1577,187)" d="m0 0 2 1-2 6-7 11-14 28-11 23-4 9-3 2-5 12-1-3 9-21 10-22 10-19 9-16z" fill="#312F32"/>
<path transform="translate(941,154)" d="m0 0 2 1-8 5-3 3-5 2-1 3-8 6-3 8-1 12 2 11 4 1 2-1 4 6 8 6 8 5v3l-6-1-11-6-7-7-5-10-1-5v-13l4-10 7-8 14-9z" fill="#6B696C"/>
<path transform="translate(311,184)" d="m0 0 1 3-3 13-4 11-12 37-5 16-3 1 1-8 9-30 12-34z" fill="#3D3B3E"/>
<path transform="translate(1495,196)" d="m0 0v3l-14 27-16 32-4 5-6 15-1-3 6-15 18-38 13-23 2-2z" fill="#343335"/>
<path transform="translate(731,260)" d="m0 0h7l8 4-1 5-2 1 1-6h-13l-15 15h-2l-2 4-28 28-3 1-6 7-4-1 12-11 8-7 18-18 7-8 12-12z" fill="#3F3D40"/>
<path transform="translate(266,223)" d="m0 0v3l-13 16-9 11-5 5h-8l-39-7-28-4h-13l-18 2-9 3-3-1 10-4 13-2h22l29 4 38 7h5l10-11 9-11z" fill="#646265"/>
<path transform="translate(640,310)" d="m0 0 1 3-2 7 1 9 4 3 7-1 8-4 4-3 2 1-5 4-4 5 8-1 11-7h3l-11 8-10 4-8 1-9-2-9-7-3-4 1-2 3 3v2h5v-10z" fill="#5B595C"/>
<path transform="translate(228,283)" d="m0 0v3l-7 7-9 11-9 9-7 8-4 2v2l-8 7-10 9-12 9-2-1 5-5 13-11 8-7 18-18 7-8 9-10z" fill="#353336"/>
<path transform="translate(416,180)" d="m0 0h3l-2 5-7 11-6 11-12 23-5 5-4 8-2 1 2-6 15-29 13-22z" fill="#3A383B"/>
<path transform="translate(982,237)" d="m0 0 4 1-1 3h2l-1 3v-2l-24 10-2-1 3-1-1-1-7 2-10 4-18 10-2-1 17-10 19-9z" fill="#5D5B5E"/>
<path transform="translate(1081,260)" d="m0 0 2 1-13 12-4 6-7 8-8 14-2 7h-2l1 16 3 6-1 2-4-6-1-3v-15l5-14 7-11 12-13 11-9z" fill="#3F3D40"/>
<path transform="translate(989,272)" d="m0 0 1 3-13 25-10 16-10 13-9 10-2 1 1-5 7-8 13-18 10-16 3-1 2-6z" fill="#3B393B"/>
<path transform="translate(1413,238)" d="m0 0h11l7 3 4 6 1 3v11l-5 10-12 12-8 5-2-1 5-5 10-9 6-6h2l1-4v-13l-3-6-4-3h-13l-11 3-9 3 3-3 12-5z" fill="#676568"/>
<path transform="translate(1124,238)" d="m0 0h10l6 3-2 1h-13l-13 4-19 10-8 6-2-1 2-4 19-12 11-5z" fill="#1C1A1D"/>
<path transform="translate(474,263)" d="m0 0h1l-1 7-11 29-4 10 6-5 5-5-2 5-7 8-6-1 4-13 5-14 4-10 5-10z" fill="#373538"/>
<path transform="translate(1900,267)" d="m0 0 2 1-2 5-8 10-2 3h-2l-2 4-2 3h-2l-1 3h-2l-3 6-4 2-3 5-13 12-5 6-3-1 20-20 9-11 13-15z" fill="#363437"/>
<path transform="translate(934,337)" d="m0 0 1 4-16 16-5 4h-2l1 3 2 2-16 7-3-1 10-5-19-1v-1l13-2 10-4 11-8 10-10z" fill="#383639"/>
<path transform="translate(1197,241)" d="m0 0h8l8 2-1 5-12 13v-3l10-12 1-2-17 2-6 5-7 10-4 6-6 4 2-5 10-14 8-9z" fill="#39373A"/>
<path transform="translate(1539,142)" d="m0 0 2 1-10 9-12 12-9 12-12 18-5 3 2-5 10-15 7-9 11-13 10-9z" fill="#3F3D40"/>
<path transform="translate(1212,308)" d="m0 0 3 1-5 9-4 6-8 6-10 4h-2l2-4 9-7 8-9z" fill="#0A090A"/>
<path transform="translate(1124,248)" d="m0 0h5l-18 9-13 10-12 11-12 15-1-2 2-5 11-13 12-11 15-10z" fill="#312F32"/>
<path transform="translate(156,350)" d="m0 0 4 1-14 8-13 5-10 2-15 1-14-2-7-3v-1h5v2h27l15-3 13-5z" fill="#444245"/>
<path transform="translate(570,273)" d="m0 0 1 2-3 9-7 20-2 8v22l-2-1-2-7 1-17 4-16 8-19z" fill="#454346"/>
<path transform="translate(1865,255)" d="m0 0 2 1-2 4-15 14-8 8-8 11-6 13-3 13 1 9-3-3v-8l2-10 6-13 3-7 7-8h2l1-4 11-11 6-3z" fill="#4E4C4F"/>
<path transform="translate(109,264)" d="m0 0 1 2-3 9v18l2 3 2-7 4-9 2-4h2l2-4 4-3 2 1-5 4-6 9-3 7v9l1 6-4 1-4-4-2-6v-15l2-11z" fill="#4C4A4D"/>
<path transform="translate(463,138)" d="m0 0h14l5 2v1h-5l-1-1h-12l-12 5-5 3-3 5-9 8-12 15-6 4 2-4 10-13 11-12 12-9z" fill="#4E4C4F"/>
<path transform="translate(1854,426)" d="m0 0v3l-9 11-12 12-9 6-9 3-11 1-9-2-7-5h3l5 3h18l14-5 10-10h2l2-4 9-11z" fill="#484649"/>
<path transform="translate(1031,225)" d="m0 0 6 1 3 3v2l-14 1-18 4 2-3-3-1v-2l17-4z" fill="#616062"/>
<path transform="translate(1740,246)" d="m0 0 2 3 5-2 1-1h12v1l-10 1-9 11-4 6-6 5h-2l3-10 7-11z" fill="#282629"/>
<path transform="translate(1757,233)" d="m0 0 1 2-2 4h38l9 4-2 7-5 5 2-5 1-5v-2h-29l-2-1h-13l-2-4 1-3z" fill="#7C7A7C"/>
<path transform="translate(316,208)" d="m0 0 1 3-10 27-7 25v5l2 1-2 4h-2l-3 9-2 10h-2l1-8 12-44 9-25z" fill="#1C1A1D"/>
<path transform="translate(522,258)" d="m0 0h6l1 5-3 10-11 23-7 14-1 4 5 1v3l-6-1-1-5 5-13 12-24 3-9 1-7z" fill="#1C1A1D"/>
<path transform="translate(389,231)" d="m0 0 1 3-8 16-9 21-4 4-1-3 10-23 2-5 3-2 5-10z" fill="#2E2C2F"/>
<path transform="translate(451,290)" d="m0 0h1l-1 9-6 17-4 10-3 3-3 8-1-3 13-37 3-6z" fill="#39373A"/>
<path transform="translate(1760,247)" d="m0 0 11 1 7 3 2 4v7l-9 11-9 10-8 7v-3l13-14 9-13 1-4-5-5-12-3z" fill="#3C3A3D"/>
<path transform="translate(1563,238)" d="m0 0 1 4-11 23-5 12v3h-3l1-8 8-20 6-11z" fill="#383639"/>
<path transform="translate(487,146)" d="m0 0 2 1 1 3v8l-5 14-7 11-11 16-2-3 11-16 7-11 4-13z" fill="#3B393C"/>
<path transform="translate(1689,258)" d="m0 0h1l-1 7-6 8h-2l-2 4-14 10-5 2-8 2 3-3 15-9 10-8 7-9z" fill="#444345"/>
<path transform="translate(667,259)" d="m0 0 2 1-7 7h-3l-2 4-7 6-6 7-5 5-9 8-2-1 13-15 13-12z" fill="#3A383B"/>
<path transform="translate(1628,150)" d="m0 0 2 1-15 13-9 10-10 13-4 6-2-3 3-5h2l2-4 7-9 9-10 7-7 5-2v-2z" fill="#2E2C2F"/>
<path transform="translate(1616,143)" d="m0 0 2 1-5 5-9 8-2 1-3 5-5 4-4 7-7 8-1 3-4 2 2-5 9-12 9-11 11-11z" fill="#39373A"/>
<path transform="translate(1868,364)" d="m0 0h1v7l-11 24-5 10-4 2 3-9 14-29v-4z" fill="#403E41"/>
<path transform="translate(1494,326)" d="m0 0 2 1-3 1-1 3-5 3h-3l-1 4-11 3h-8l-5-1v-1l9-2-1-2 9-2 6-1h3z" fill="#242225"/>
<path transform="translate(1846,252)" d="m0 0 2 1-11 11-4 7-11 15-5 5-2 1 2-5 10-15 13-15z" fill="#363437"/>
<path transform="translate(471,308)" d="m0 0v3l-10 13-9 11-6 5-13 4-1-4 2-3v5l10-4h2l2-4h2l2-4 12-15 5-5z" fill="#2B292C"/>
<path transform="translate(1893,313)" d="m0 0 1 3-2 8-8 18-6 10-5 3-2-1 4-2 2-6 12-24z" fill="#413F42"/>
<path transform="translate(1398,255)" d="m0 0 3 2-13 10-10 9-9 11-3 2 2-7 9-10 8-7z" fill="#363437"/>
<path transform="translate(1730,264)" d="m0 0 1 2-2 4 7-5-2 4-9 13-6 8-1-2 2-4h2v-4l-8 9v-3l10-13z" fill="#5A585B"/>
<path transform="translate(1678,238)" d="m0 0h8l7 3 4 4 3 8-1 9-3 6-1-2 2-6v-10l-1-4-4-2-1-3h-15l-16 5-10 6-2-1 11-7 13-5z" fill="#6E6C6E"/>
<path transform="translate(1848,407)" d="m0 0 1 2-2 5-1 4-8 12-11 13-2 3-5 2h-3l7-6 9-11 10-15z" fill="#373538"/>
<path transform="translate(470,245)" d="m0 0 9 1 2 1v7l-5 11-2-4 4-9v-4l-6-1-5 5-5 12-6 9-2-1 10-19 3-6z" fill="#1C1A1D"/>
<path transform="translate(1112,282)" d="m0 0 2 1-14 9-8 4h-2v3l6-2 4 1-15 4h-6l-1-4 8-3 12-5z" fill="#5D5B5E"/>
<path transform="translate(213,285)" d="m0 0v3l-39 39-9 6-2-1 13-11 10-9z" fill="#5B595C"/>
<path transform="translate(370,273)" d="m0 0 1 3-8 17-10 9-14 14-2-1 19-19 6-9 5-12z" fill="#49474A"/>
<path transform="translate(1490,229)" d="m0 0 1 2-8 16-9 19-3 1 1-7 10-19 5-9h2z" fill="#39373A"/>
<path transform="translate(1577,187)" d="m0 0 2 1-2 6-7 11-6 12-5 5-2 1 2-5 8-15z" fill="#3A383B"/>
<path transform="translate(464,148)" d="m0 0 4 1-11 8-15 15-8 10-1-4 3-4h2l2-4 9-10 8-7z" fill="#343235"/>
<path transform="translate(1677,323)" d="m0 0h5l-5 5-3 2-1 3-3 2-9 1-4 1 1-4z" fill="#0E0C0E"/>
<path transform="translate(1404,242)" d="m0 0h5l-4 3-14 6-17 12h-3l3-5 15-10z" fill="#2D2B2E"/>
<path transform="translate(432,182)" d="m0 0v3l-9 13-10 16-2-4 10-16 6-9z" fill="#363437"/>
<path transform="translate(282,281)" d="m0 0 1 2-2 15v18l2 14 4 6 3 4-4-2-4-4-3-8-1-8v-17l3-19z" fill="#1C1A1D"/>
<path transform="translate(865,326)" d="m0 0 1 3-4 10v23l-3-3-1-3v-18l4-10z" fill="#3F3D40"/>
<path transform="translate(179,259)" d="m0 0h19l30 4 3 1 1 3-4 5-2 4-6 4-3 3-2-1 11-11 4-6-25-3-26-2z" fill="#1C1A1D"/>
<path transform="translate(1e3 195)" d="m0 0 1 3-8 24-5 13-4 7-3-1 1-5 3-3h2l3-11 9-26z" fill="#1C1A1D"/>
<path transform="translate(1827,385)" d="m0 0 2 1-7 8-6 4-21 21v-3l11-12 11-11z" fill="#353336"/>
<path transform="translate(1755,213)" d="m0 0 2 1-5 4-7 8-8 11v7l3 2-5-1-1-1v-9l6-8 5-6z" fill="#585659"/>
<path transform="translate(341,139)" d="m0 0h11l-1 5-3 4 1-7h-9v2l-8 4-11 10v-3l10-11z" fill="#615F62"/>
<path transform="translate(1894,351)" d="m0 0v3l-26 52-2 1 1-4 5-11 12-23 8-16z" fill="#636164"/>
<path transform="translate(522,272)" d="m0 0 1 3-12 24-5 13v4l6 1 6-4-2 4-5 3-6-1-2-5 5-14z" fill="#5D5B5E"/>
<path transform="translate(1240,262)" d="m0 0 2 4-10 17-6 5-5 7v-3l10-15z" fill="#474548"/>
<path transform="translate(1025,160)" d="m0 0 4 1h-3l-1 5h-2l-3 10-7 22-3 14h-2l1-8 7-24 6-16z" fill="#1C1A1D"/>
<path transform="translate(266,223)" d="m0 0v3l-13 16-9 11-5 5h-8l-13-3v-1l20 2 10-11 9-11z" fill="#5C5A5D"/>
<path transform="translate(1908,278)" d="m0 0 2 4-11 27-4 2 1-5z" fill="#333134"/>
<path transform="translate(1427,252)" d="m0 0h1v7l-5 8-6 7-13 10-15 8-3-1 15-8 12-9 9-9 3-5z" fill="#615F62"/>
<path transform="translate(915,278)" d="m0 0 4 1-8 7-13 13-8 10-1-2 8-10 3-3 3-5 10-10z" fill="#413F42"/>
<path transform="translate(1170,271)" d="m0 0 2 4-8 13-12 12v-3l8-10z" fill="#39373A"/>
<path transform="translate(1142,244)" d="m0 0 3 3 1 3v11l-5 10-4 5h-2v2l-12 9-6 2 3-3 10-7 7-8 3-3 4-9v-8z" fill="#5A595B"/>
<path transform="translate(1124,238)" d="m0 0h10l6 3-2 1-3-1h-13l-14 5-13 7-2-1 13-8 12-5z" fill="#6C6A6D"/>
<path transform="translate(1023,166)" d="m0 0 1 3-10 33-4 15h-1l1-10 4-15 8-24z" fill="#5E5C5F"/>
<path transform="translate(1444,308)" d="m0 0h1l1 16 4 9 5 4 9 3h8l11-2-2 2-7 2h-12l-9-3-5-4-4-8z" fill="#646265"/>
<path transform="translate(1384,292)" d="m0 0 2 1-7 5h8l-3 2-8 2h-8l-1-4 9-3z" fill="#686669"/>
<path transform="translate(1337,301)" d="m0 0 2 1-2 14 2 10 2 6 4 2 8 5 5 2-4 1-11-6-6-8-2-5v-14z" fill="#5E5C5F"/>
<path transform="translate(479,149)" d="m0 0h2v8l-5 12-2 6-8 13-4 2 2-5 10-17 5-12z" fill="#454346"/>
<path transform="translate(1694,268)" d="m0 0 1 2-7 8-10 8-15 8-3-1 14-7 5-5 8-7 5-3z" fill="#4F4D50"/>
<path transform="translate(910,274)" d="m0 0 2 1-9 10-6 5-5 2-10 10-2-1 12-12 11-9z" fill="#49474A"/>
<path transform="translate(1629,186)" d="m0 0 2 1-2 5-14 20-7 5 2-4 11-15z" fill="#343235"/>
<path transform="translate(1580,249)" d="m0 0v3l-6 9-5 3-2 3-7 4-4 4-2-1 17-16z" fill="#5B595C"/>
<path transform="translate(1897,346)" d="m0 0m-1 1m-1 1v3l-5 7-11 23-6 11-1-3 16-32 6-8z" fill="#1C1A1D"/>
<path transform="translate(1650,264)" d="m0 0 3 1-19 19-6 8-1-2 4-7 15-15z" fill="#333134"/>
<path transform="translate(943,340)" d="m0 0 3 1-4 5-8 7-12 9-5 3h-2l1-3 8-5 7-4 9-10z" fill="#474548"/>
<path transform="translate(213,287)" d="m0 0v3l-8 9-5 5-6 5-14 14-2-1 19-19h2l2-4z" fill="#1C1A1D"/>
<path transform="translate(1471,242)" d="m0 0 1 2-8 15-4 6-5 13-1-3 6-15 7-15z" fill="#424043"/>
<path transform="translate(1324,233)" d="m0 0 2 2 2 9v10l-3 13-8 14-1-2 7-15 2-8v-17z" fill="#615F62"/>
<path transform="translate(347,148)" d="m0 0 1 2-11 20-5 10-2-4 8-15 3-3z" fill="#413F42"/>
<path transform="translate(1937,255)" d="m0 0 1 2-9 19-8 18-2 2 1-5 6-13 3-10 3-6h2l2-6z" fill="#4E4C4F"/>
<path transform="translate(731,260)" d="m0 0h7l8 4-1 5-2 1 1-6h-13l-15 15-2-1 15-15z" fill="#353336"/>
<path transform="translate(987,242)" d="m0 0h1v7l-5 13-3 6h-2l1-8 6-15z" fill="#39373A"/>
<path transform="translate(921,189)" d="m0 0 1 2-1 10v5h-3l-3-3-2-11 2-1v4l5-1z" fill="#29272A"/>
<path transform="translate(1430,267)" d="m0 0 1 4-12 12-8 5-2-1 5-5 10-9z" fill="#3A383B"/>
<path transform="translate(1197,241)" d="m0 0h8l8 2-1 5-12 13v-3l10-12 1-2h-17l-4 3-2-1 5-4z" fill="#666467"/>
<path transform="translate(1568,175)" d="m0 0v3l-10 16-7 9-1-3 4-6 2-1 3-7 5-7 1-3z" fill="#464447"/>
<path transform="translate(1653,249)" d="m0 0m-1 1m-2 1h2l-1 3-10 6-7 6-4-2 10-8 6-4z" fill="#2C2A2D"/>
<path transform="translate(1510,173)" d="m0 0v3l-12 18-5 3 2-5 10-15z" fill="#363437"/>
<path transform="translate(228,283)" d="m0 0v3l-7 7-9 11-4 3-1-3 14-15z" fill="#3A383B"/>
<path transform="translate(934,337)" d="m0 0 1 4-16 16-5 4-2-1 1-3 9-7 9-9z" fill="#343235"/>
<path transform="translate(1918,331)" d="m0 0h2l-2 4-14 11-7 5-2-1 5-5 2 1 2-4h3l2-4 4-4h2l1-2 2 1z" fill="#2D2B2E"/>
<path transform="translate(663,324)" d="m0 0 2 1-5 4-4 5h2v2l-3 1h-7l-2-3 5-1v-2l8-4z" fill="#353336"/>
<path transform="translate(1545,251)" d="m0 0 1 3-5 11-3 2-5 12-1-3 9-21z" fill="#403E41"/>
<path transform="translate(640,310)" d="m0 0 1 3-2 7 1 9 1 4-5 1-6-5-2-5 3 1 1 4h5v-10z" fill="#424043"/>
<path transform="translate(736,241)" d="m0 0 4 2 4 5 2 6-15-6v-1l7-1v-2h-2z" fill="#323033"/>
<path transform="translate(941,154)" d="m0 0 2 1-8 5-3 3-5 2-1 3-6 5h-2l2-5 10-8z" fill="#373538"/>
<path transform="translate(487,146)" d="m0 0 2 1 1 3v8l-5 14-4 4-2-1 5-9 3-10z" fill="#484749"/>
<path transform="translate(1752,290)" d="m0 0h3l-2 5-10 15-2 1 1-5 8-14z" fill="#3E3C3F"/>
<path transform="translate(1124,248)" d="m0 0h5l-18 9-9 7h-2l2-4 8-6 5-3z" fill="#3D3B3E"/>
<path transform="translate(588,256)" d="m0 0h7l1 3-2 2v-3l-14 3-11 4-6 3-2-1 16-8z" fill="#6A686A"/>
<path transform="translate(1788,427)" d="m0 0 1 3-2 10v8l2 5-2 1-3-5-1-8 3-10z" fill="#4E4C4F"/>
<path transform="translate(1874,299)" d="m0 0v3l-6 8-12 11-5 6-3-1 20-20z" fill="#3F3D40"/>
<path transform="translate(1647,292)" d="m0 0 3 1-7 4h-3v2l3 2-11 1-1-4 9-3z" fill="#605E61"/>
<path transform="translate(1308,221)" d="m0 0h16l6 2-3 1h-16v2h-7l2-4z" fill="#656366"/>
<path transform="translate(416,180)" d="m0 0h3l-2 5-7 11-6 5 2-5 7-12z" fill="#464447"/>
<path transform="translate(1820,400)" d="m0 0 3 1-14 13-5 6-1-2 3-5 11-11z" fill="#312F32"/>
<path transform="translate(1081,260)" d="m0 0 2 1-13 12-13 13v-3l12-13 11-9z" fill="#504E50"/>
<path transform="translate(689,246)" d="m0 0 3 1-3 3-11 6-5 3-4-1 16-10z" fill="#343235"/>
<path transform="translate(1123,326)" d="m0 0 2 1-9 6-7 3-5 2h-6l3-2 19-9z" fill="#030203"/>
<path transform="translate(1689,258)" d="m0 0h1l-1 7-6 8h-2l-2 4-5 4-2-1 7-7 4-6 4-5z" fill="#1F1D20"/>
<path transform="translate(544,242)" d="m0 0 3 1 1 2v7l-5 13-5 10-2-3 6-10 3-9v-8z" fill="#545255"/>
<path transform="translate(1794,433)" d="m0 0 1 4v11l5 5 10-1 5-3 2 1-3 3-6 2h-10l-3-1-2-3v-15z" fill="#504E51"/>
<path transform="translate(1598,311)" d="m0 0h1l2 14 4 6 8 6 8 4-3 1-10-5-7-7-3-7z" fill="#636164"/>
<path transform="translate(1773,268)" d="m0 0v3l-7 7-4 5-8 7v-3l13-14 4-4z" fill="#383639"/>
<path transform="translate(1654,149)" d="m0 0h1v11l-4 11-10 16-2 1 1-5 2-3h2l2-5 5-10 2-6z" fill="#514F52"/>
<path transform="translate(1521,178)" d="m0 0h2l-2 4-11 16-3 3v-5l4-5 9-12z" fill="#343235"/>
<path transform="translate(249,258)" d="m0 0 1 2 27 4 6 2-3 1-26-4-5-2z" fill="#605E61"/>
<path transform="translate(1498,253)" d="m0 0v3l-19 19-4-1 10-9 8-7z" fill="#5B595C"/>
<path transform="translate(1770,242)" d="m0 0h32l1 3-4 8-3 2 2-5 1-5v-2h-29z" fill="#3A383B"/>
<path transform="translate(408,196)" d="m0 0 1 3-7 11-7 7 2-6 6-10z" fill="#373538"/>
<path transform="translate(1041,138)" d="m0 0 5 1v3l-4 3-2-1 1-3-9 4-4 3-2-1 11-8z" fill="#636164"/>
<path transform="translate(1856,369)" d="m0 0v3l-2 4-11 8v-3l6-7z" fill="#1A181A"/>
<path transform="translate(958,323)" d="m0 0 1 4-12 13-1-4z" fill="#363437"/>
<path transform="translate(536,239)" d="m0 0 6 1-4 2-9 4-11 7-2-1 9-7z" fill="#69686A"/>
<path transform="translate(713,290)" d="m0 0h2v8l-3 13-1 18h-1v-19l3-19z" fill="#232124"/>
<path transform="translate(1428,240)" d="m0 0 4 2 4 8v11l-4 8-1-2 2-4v-13l-3-6z" fill="#615F62"/>
<path transform="translate(1575,217)" d="m0 0 1 2-11 21-2-3 6-12 4-5z" fill="#3D3B3E"/>
<path transform="translate(282,334)" d="m0 0 8 6 2 1h13l9-3 3 1-11 4h-16l-6-4z" fill="#676568"/>
<path transform="translate(948,322)" d="m0 0v3l-9 11-2 3h-2l1-4 9-12z" fill="#2E2C2F"/>
<path transform="translate(1546,193)" d="m0 0 1 2-5 10-3 4h-2l-1 3-4 2 2-4z" fill="#2F2D30"/>
<path transform="translate(1030,161)" d="m0 0h8l12 3h5l2-1 1 5-7-1-21-5z" fill="#676568"/>
<path transform="translate(1118,331)" d="m0 0 4 1-17 8-6 2h-5l4-2 6-1v-2l12-5z" fill="#3E3C3F"/>
<path transform="translate(178,333)" d="m0 0m-1 1m-1 1 1 3-12 10-5 2 2-4 10-8z" fill="#333134"/>
<path transform="translate(1423,266)" d="m0 0v3l-7 8-14 10-2-1 14-11 5-4z" fill="#1C1A1D"/>
<path transform="translate(240,267)" d="m0 0h11v1l-9 1-8 9-4 4-1-3z" fill="#3C3A3D"/>
<path transform="translate(1577,187)" d="m0 0 2 1-2 6-7 11h-2l1-5z" fill="#323033"/>
<path transform="translate(1603,174)" d="m0 0h2l-2 4-9 12-3 3-1-3 3-5h2l2-4z" fill="#343235"/>
<path transform="translate(1574,146)" d="m0 0 2 1 1 3v8l-4 11-3 6-2-4 6-10 1-10z" fill="#49484A"/>
<path transform="translate(433,161)" d="m0 0v3l-10 12-6 4 2-4 7-9z" fill="#2F2D30"/>
<path transform="translate(156,350)" d="m0 0 4 1-14 8-4 2h-3l1-3z" fill="#3A393B"/>
<path transform="translate(571,308)" d="m0 0 1 4v15l2 4 8 3-2 2-6-1-3-4-1-3v-17z" fill="#242225"/>
<path transform="translate(1496,320)" d="m0 0 2 1-7 8-8 5-2-1 1-3 11-7z" fill="#424042"/>
<path transform="translate(1672,239)" d="m0 0h6l-2 2-16 5-10 6-2-1 11-7z" fill="#5E5C5F"/>
<path transform="translate(1608,289)" d="m0 0v3l-12 11-8 8-2-1 20-20z" fill="#474548"/>
<path transform="translate(439,326)" d="m0 0 1 3-3 10 9-2-4 3-5 2h-3l1-7z" fill="#1C1A1D"/>
<path transform="translate(1197,262)" d="m0 0 2 1-8 9-10 15-1-2 14-21z" fill="#5A585B"/>
<path transform="translate(1398,255)" d="m0 0 3 2-13 10-3 3-2-1 7-8z" fill="#3B393C"/>
<path transform="translate(1851,249)" d="m0 0h6l8 5-2 1-3-1v-2l-9 2-4 1 2-5z" fill="#403F41"/>
<path transform="translate(1495,196)" d="m0 0v3l-6 11-5 3 2-5 6-11z" fill="#323033"/>
<path transform="translate(336,142)" d="m0 0 4 1-8 4-11 10v-3l8-9z" fill="#3C3B3D"/>
<path transform="translate(1463,259)" d="m0 0 1 2-8 20h-2l1-5 6-15z" fill="#1C1A1D"/>
<path transform="translate(1742,227)" d="m0 0v3l-5 7v7l3 2-5-1-1-1v-9l5-5z" fill="#383639"/>
<path transform="translate(1767,207)" d="m0 0h6l-2 6-4 7-1-2 2-8h-6l2-2z" fill="#5A595B"/>
<path transform="translate(1857,392)" d="m0 0 1 3-5 10-4 2 3-9 2-4z" fill="#333134"/>
<path transform="translate(1677,323)" d="m0 0v3l-10 6-10 5 1-4z" fill="#1A181B"/>
<path transform="translate(1964,281)" d="m0 0 2 1-1 6-2 1v-4h-2l-2 4-7 7v-3l10-11z" fill="#605E61"/>
<path transform="translate(1539,265)" d="m0 0 1 2-7 17-3 1 1-6h2l3-9z" fill="#242225"/>
<path transform="translate(1794,255)" d="m0 0h2l-2 5-8 7-5 6v-3l11-13z" fill="#2A282B"/>
<path transform="translate(1924,238)" d="m0 0 10 3v1h-10l-5 4-6 7v-3z" fill="#666467"/>
<path transform="translate(1921,322)" d="m0 0 2 1-5 6-7 5-6 2 5-5z" fill="#312F32"/>
<path transform="translate(1743,309)" d="m0 0 1 3-2 8v14l-2-3v-16l2-5z" fill="#1C1A1D"/>
<path transform="translate(1613,212)" d="m0 0v3l-14 15-2 1 2-4 8-10z" fill="#2E2C2F"/>
<path transform="translate(1205,312)" d="m0 0v3l-11 12-5 2 4-6 10-9z" fill="#424043"/>
<path transform="translate(511,299)" d="m0 0 1 3-5 11 1 2h5l-1 3-6-1-1-5 4-10z" fill="#1C1A1D"/>
<path transform="translate(1669,242)" d="m0 0 4 1-14 6-5 3-2-1 5-4 8-4z" fill="#1C1A1D"/>
<path transform="translate(1194,243)" d="m0 0h15v1l-15 2-8 6-1-3z" fill="#242225"/>
<path transform="translate(1112,241)" d="m0 0h3v2l-16 8-6 2 4-4z" fill="#626063"/>
<path transform="translate(1314,223)" d="m0 0h13v1h-7v3h2l-1 3-6-3-4-1v-2z" fill="#262427"/>
<path transform="translate(1868,364)" d="m0 0h1v7l-5 11h-2l3-11 1-6z" fill="#29272A"/>
<path transform="translate(177,320)" d="m0 0 3 1-4 5-11 7-2-1 13-11z" fill="#4A484B"/>
<path transform="translate(1316,283)" d="m0 0v3l-4 6-8 6 2-4 7-10z" fill="#373538"/>
<path transform="translate(1365,265)" d="m0 0 2 1-19 19-2-1 14-14z" fill="#514F52"/>
<path transform="translate(1427,252)" d="m0 0h1v7l-5 8-6 7h-2l2-4 7-8z" fill="#727073"/>
<path transform="translate(1846,252)" d="m0 0 2 1-17 17v-3l11-12z" fill="#525053"/>
<path transform="translate(889,305)" d="m0 0 1 2-3 7-7 8-1-2 9-14z" fill="#2C2A2D"/>
<path transform="translate(1182,280)" d="m0 0v3l-2 6-3 3-6 12-1-3 7-14z" fill="#1F1D20"/>
<path transform="translate(1887,286)" d="m0 0v3l-3 4h-2l-1 3h-2l-3 6-2-1 3-6z" fill="#2C2A2D"/>
<path transform="translate(1025,160)" d="m0 0 4 1h-3l-1 5h-2l-3 10-2 4-1-2 4-12z" fill="#252326"/>
<path transform="translate(464,148)" d="m0 0 4 1-11 8-5 4 1-4 8-7z" fill="#3B393C"/>
<path transform="translate(68,324)" d="m0 0h5l1 3-5 3v12h-1l-1-5v-11z" fill="#727073"/>
<path transform="translate(996,256)" d="m0 0 1 3-6 13-2-4 3-7 3-1z" fill="#3B393C"/>
<path transform="translate(133,248)" d="m0 0h5l-4 2-15 6-4 1 5-5z" fill="#282629"/>
<path transform="translate(286,209)" d="m0 0 1 3-11 14-1-3 9-12z" fill="#2E2C2F"/>
<path transform="translate(1201,326)" d="m0 0 2 1-8 7-6 3-3-1h2l2-4 8-3z" fill="#444245"/>
<path transform="translate(1913,252)" d="m0 0v3l-4 6-8 6 2-4 8-10z" fill="#353336"/>
<path transform="translate(1865,407)" d="m0 0 1 2-9 16-2 1 2-8 5-6z" fill="#4E4C4F"/>
<path transform="translate(562,338)" d="m0 0 9 2h14l-4 2-11 1-8-4z" fill="#5F5D60"/>
<path transform="translate(449,335)" d="m0 0 2 1-5 4-13 4-1-4 2-3v5l14-6z" fill="#6C6A6D"/>
<path transform="translate(471,308)" d="m0 0v3l-10 13v-3l2-5 4-5z" fill="#434144"/>
<path transform="translate(1590,171)" d="m0 0v3l-7 8-1 3-4 2 2-5 6-8z" fill="#2E2C2F"/>
<path transform="translate(559,334)" d="m0 0 5 2 3 2 11 1v2h-7l-10-3z" fill="#222023"/>
<path transform="translate(1459,324)" d="m0 0 2 3 3 5 4 3-4 1-5-5-1-4z" fill="#333134"/>
<path transform="translate(505,310)" d="m0 0 1 2v4l6 1 6-4-2 4-5 3-6-1-2-5z" fill="#6C6A6D"/>
<path transform="translate(953,311)" d="m0 0 2 4-5 7-4 2 1-4z" fill="#353336"/>
<path transform="translate(1346,288)" d="m0 0v3l-4 8-4 2 3-9 3-3z" fill="#302E31"/>
<path transform="translate(792,285)" d="m0 0 4 1-3 6-1-3-8 6 2-4 4-5z" fill="#636164"/>
<path transform="translate(522,258)" d="m0 0h6l1 5-2 7-4 2 3-11v-2z" fill="#3D3B3E"/>
<path transform="translate(1136,256)" d="m0 0 1 4-2 6-10 9-2-1 9-9z" fill="#5C5A5D"/>
<path transform="translate(1667,253)" d="m0 0 2 1-13 9-3 1 2-4 8-6z" fill="#403E41"/>
<path transform="translate(1841,279)" d="m0 0 1 3-7 9-3 1 2-5z" fill="#312F32"/>
<path transform="translate(480,251)" d="m0 0 1 3-5 11-2-4 5-9z" fill="#343235"/>
<path transform="translate(1494,326)" d="m0 0 2 1-3 1-1 3-5 3h-3v2l-5 1 4-4z" fill="#030203"/>
<path transform="translate(683,307)" d="m0 0 2 1-10 11-4-1z" fill="#4E4C4F"/>
<path transform="translate(1529,284)" d="m0 0h3l-1 5-5 5-4 3 2-4z" fill="#3D3B3E"/>
<path transform="translate(1453,278)" d="m0 0 2 3-1 6-5 5-1-2z" fill="#373538"/>
<path transform="translate(229,267)" d="m0 0v3l-3 6-6 4-3 3-2-1 11-11z" fill="#525053"/>
<path transform="translate(1245,257)" d="m0 0h7l4 2-10 1-3 4h-2l1-5h3z" fill="#232124"/>
<path transform="translate(1091,253)" d="m0 0 3 1-5 5-4 3-2-1 2-4z" fill="#39373A"/>
<path transform="translate(1136,241)" d="m0 0 6 1 3 9v8l-2 3v-10l-2-7-4-2z" fill="#262427"/>
<path transform="translate(1930,242)" d="m0 0h6l5 3-1 7-2 2v-7l-4-3z" fill="#353336"/>
<path transform="translate(1848,407)" d="m0 0 1 2-2 5-1 4-3 4h-2l1-4z" fill="#484649"/>
<path transform="translate(1854,426)" d="m0 0v3l-8 10-1-4 6-7z" fill="#3E3C3F"/>
<path transform="translate(1907,341)" d="m0 0 2 1-12 9-2-1 5-5 2 1 2-4z" fill="#454346"/>
<path transform="translate(1756,319)" d="m0 0h1l1 11 4 5-2 1-4-3-1-11z" fill="#1D1B1E"/>
<path transform="translate(1900,297)" d="m0 0 1 3-1 7-4 4-1-3z" fill="#413F42"/>
<path transform="translate(432,182)" d="m0 0v3l-6 8-2-3 3-5z" fill="#383639"/>
<path transform="translate(315,174)" d="m0 0h1l-1 9-4 9-1-2 4-15z" fill="#29272A"/>
<path transform="translate(1644,158)" d="m0 0 1 4-4 8-3 7-3 1 2-5z" fill="#545255"/>
<path transform="translate(861,357)" d="m0 0 4 5 7 6 2 2-5-1-7-5z" fill="#272528"/>
<path transform="translate(1862,321)" d="m0 0 3 1-3 3-7 4-5 2 5-5z" fill="#232124"/>
<path transform="translate(1240,262)" d="m0 0 2 4-3 5-5 3 2-5z" fill="#434144"/>
<path transform="translate(1404,242)" d="m0 0h5l-4 3-10 4-2-1 4-3z" fill="#1C1A1D"/>
<path transform="translate(1757,233)" d="m0 0 1 2-2 4 12 1v1l-13 1-2-4 1-3z" fill="#4A484B"/>
<path transform="translate(941,154)" d="m0 0 2 1-8 5-3 3-5 2 3-5z" fill="#484649"/>
<path transform="translate(949,153)" d="m0 0 3 1-12 5-6 2 4-4 5-3z" fill="#1D1B1E"/>
<path transform="translate(1551,139)" d="m0 0h12v1l-16 2-6 2v-3z" fill="#252326"/>
<path transform="translate(1051,332)" d="m0 0 4 2 8 5 5 2-4 1-8-4-5-4z" fill="#6A686B"/>
<path transform="translate(742,264)" d="m0 0h2l-1 8-5 5-3 5-1-2 7-11z" fill="#242225"/>
<path transform="translate(1211,246)" d="m0 0v3l-11 12v-3l9-10z" fill="#5B595C"/>
<path transform="translate(1e3 244)" d="m0 0h1l-1 7-2 5-2-3 1-5z" fill="#363437"/>
<path transform="translate(1820,400)" d="m0 0 3 1-12 11v-3z" fill="#2E2C2F"/>
<path transform="translate(1836,386)" d="m0 0 4 1-10 8-2 1 1-4z" fill="#2C2A2D"/>
<path transform="translate(934,337)" d="m0 0 1 4-7 7-3-1z" fill="#39373A"/>
<path transform="translate(1340,332)" d="m0 0 4 1 5 4 9 4-4 1-11-6z" fill="#656466"/>
<path transform="translate(1893,313)" d="m0 0 1 3-2 8-4 4-1-2z" fill="#413F42"/>
<path transform="translate(1861,313)" d="m0 0v3l-8 8-2 3-3-1 5-5z" fill="#413F42"/>
<path transform="translate(228,283)" d="m0 0v3l-7 7-5 2 5-6z" fill="#3D3B3E"/>
<path transform="translate(1471,267)" d="m0 0h2l-3 10 3 1-5 2 1-10z" fill="#312F32"/>
<path transform="translate(977,265)" d="m0 0 2 3-2 6-4 4-1-2z" fill="#39373A"/>
<path transform="translate(984,254)" d="m0 0 1 2-5 12h-2v-5h2l2-7z" fill="#201E21"/>
<path transform="translate(1380,254)" d="m0 0 2 1-5 6-4 3-2-1 3-5z" fill="#363437"/>
<path transform="translate(1903,326)" d="m0 0h1l-1 12-4-1z" fill="#2F2D30"/>
<path transform="translate(1536,324)" d="m0 0 2 3 5 5 4 3h-6l-4-5z" fill="#312F32"/>
<path transform="translate(978,292)" d="m0 0 1 4-4 7-2-4z" fill="#312F32"/>
<path transform="translate(366,283)" d="m0 0 1 2-5 9-2-1 3-8z" fill="#2D2B2E"/>
<path transform="translate(741,245)" d="m0 0 3 3 2 6-5-2-4-3h5z" fill="#7C7B7D"/>
<path transform="translate(1555,179)" d="m0 0 1 2-5 10-4 2 2-5z" fill="#49474A"/>
<path transform="translate(868,317)" d="m0 0 2 4-3 5-4 2 2-6z" fill="#3F3D40"/>
<path transform="translate(1897,309)" d="m0 0 1 3-4 8h-2l2-9z" fill="#201E21"/>
<path transform="translate(877,308)" d="m0 0v3l-6 8h-2l1-5z" fill="#252326"/>
<path transform="translate(1835,265)" d="m0 0v3l-4 5-5 3 1-4z" fill="#2E2C2F"/>
<path transform="translate(1637,258)" d="m0 0 3 1-6 7-4-2z" fill="#413F42"/>
<path transform="translate(1629,186)" d="m0 0 2 1-2 5-5 5-2 1 2-4z" fill="#3C3A3D"/>
<path transform="translate(924,357)" d="m0 0h2l-1 3-8 5h-2l1-3z" fill="#333134"/>
<path transform="translate(114,257)" d="m0 0v3l-4 10-2 2 2-10z" fill="#312F32"/>
<path transform="translate(667,259)" d="m0 0 2 1-5 5-5 3-2-1z" fill="#3C3A3D"/>
<path transform="translate(989,233)" d="m0 0h3l-2 5-3 4-2-1 1-5z" fill="#272528"/>
<path transform="translate(1534,212)" d="m0 0v3l-4 5-5 3 2-4 4-5z" fill="#333134"/>
<path transform="translate(482,173)" d="m0 0 1 2-6 9-2-2 4-6h2z" fill="#3C3A3D"/>
<path transform="translate(322,156)" d="m0 0v3l-9 8v-3l6-7z" fill="#424043"/>
<path transform="translate(1616,143)" d="m0 0 2 1-10 10-2-1 7-8z" fill="#2E2C2F"/>
<path transform="translate(1873,311)" d="m0 0 2 1-7 8-3 1v-3z" fill="#312F32"/>
<path transform="translate(662,277)" d="m0 0 2 1-11 12v-3z" fill="#1C1A1D"/>
<path transform="translate(1689,258)" d="m0 0h1l-1 7-6 5-2-1 6-7z" fill="#444245"/>
<path transform="translate(1008,212)" d="m0 0h1v9l-2 3-1-9z" fill="#2F2D30"/>
<path transform="translate(1546,193)" d="m0 0 1 2-4 8-5 3 2-5z" fill="#504E51"/>
<path transform="translate(1512,190)" d="m0 0h2l-2 5-4 6h-1v-5z" fill="#39373A"/>
<path transform="translate(1568,175)" d="m0 0v3l-6 7-1 2-2-1 5-7 1-3z" fill="#2F2D30"/>
<path transform="translate(416,180)" d="m0 0h3l-2 5-2 3h-2l1-5z" fill="#2C2A2D"/>
<path transform="translate(1628,150)" d="m0 0 2 1-9 8h-2l2-4 4-2v-2z" fill="#3B393C"/>
</svg>
