<?xml version="1.0" encoding="UTF-8"?>
<svg version="1.1" viewBox="0 0 2048 507" width="1280" height="1280" xmlns="http://www.w3.org/2000/svg">
<path transform="translate(0)" d="m0 0h2048v507h-2048z" fill="#FEFEFE"/>
<path transform="translate(1551,138)" d="m0 0h10l9 3 6 7 1 7-3 12-8 14-8 12-10 14-12 14-9 11-12 12-7 8-10 10-8 7-15 14-10 8-3 6-2 8v20l5 8 2 1h7l14-7 11-9 10-9 14-14 5-9 10-24 13-28 11-22 10-17 12-19 12-14 7-8 9-8 10-6 8-2h10l10 4 4 5 1 2v10l-5 13-10 16-11 15-12 15-9 11-14 15-9 9-4 5-8 7-15 14-8 7-6 5-4 7-2 10v14l4 10 4 2h7l12-6 10-8 14-12 12-13 11-13 7-8 12-11 18-13 16-8 9-3h14l7 4 4 8v10l-4 9-5 6-11 9-17 9-17 6-7 2-7-1 1-4 9-2 17-8 15-10 10-9 6-9v-9l-1-1h-7l-11 4-12 8-11 10-7 6-9 11-7 10-7 16-1 10 2 7 6 5 3 1h14l13-4 21-10 12-8 10-9 9-9 10-13 10-14 13-21 1-3-5-1-1-1v-8l6-9 12-12 16-8h4l-1 5-6 11-10 17h42l5 2-1 7-9 13-12 15-11 18-8 17-2 7v10l3 5 6-1 12-7 14-12 5-4 1-2h2l2-4 9-10 11-18 11-13 11-11 9-3 7 3 4 4-1 4-13 11-9 10-8 10-6 12-4 15v7l5 5 10-1 10-5 12-11 7-8 9-10 9-11 11-14 13-17 10-12 3-2 9 2 8 4-1 6-13 30-17 37-8 19 16-12 13-11 8-7 17-17 6-7 4-1-1 6-11 12-7 8-10 10-8 7-10 9-14 11-10 7-22 44-12 22-10 15-11 12-7 7-12 7-13 3-12-2-8-6-4-6v-10l5-12 7-11 15-16 8-7 15-12 18-13 15-10 8-6 14-29 11-24 11-27 2-8-14 19-10 13-9 11-9 10-9 9-13 9-10 4h-14l-10-5-5-8-1-16-12 12-8 7-12 9-11 5-5 1h-11l-6-3-4-5-2-9 1-11 5-13 10-15 15-16 8-12-1-5-1-3-15-3h-10l-9 11-13 19-13 17-7 8-9 10-11 10-15 10-18 8-16 3h-10l-13-3-9-5-7-8-2-8v-7l1-5-8 7-8 8-11 9-11 7-8 3h-13l-9-3-6-7-2-5-1-6v-8l2-9-8 7-16 16-14 10-9 4-4 1h-10l-10-3-7-8-2-6v-20l-5 4-7 8-13 10-15 9-16 6-12 2h-10l-16-4-8-6-5-6-2-6v-10l3-13 7-13 9-10 9-9 17-13 13-8 11-5 6-2h16l5 3 4 6 1 3v8l-4 10-9 10-9 7-16 8-12 5-15 3-4-2 3-3 13-4 17-9 11-8 10-9 5-10v-9l-12 2-12 6-13 10-12 11-7 8-10 15-5 10-2 8v9l4 6 4 3 4 1h11l15-4 14-6 16-10 10-8 13-13 6-10 10-26 17-35 12-23 14-22 10-13 9-10 10-10 7-5 7-3z" fill="#050405"/>
<path transform="translate(464,138)" d="m0 0h11l8 3 6 7 1 7-3 12-6 11-13 19-10 13-8 10-12 14-14 15-15 15-8 7-11 10-8 7-6 7-3 9-1 12 1 9 4 7 4 2 8-1 10-5 12-9 13-12 9-9 15-20 12-19 5-12 3-3 8-1 5 2 1 6-10 24-12 33 5-4 11-13 16-17 13-12 12-11 14-9 6-3 6 1 4 4 1 7-5 14-12 25 3-2 8-7 13-10 15-9 15-5 9-1 1 5-14 27-7 20-1 5v14l3 5 2 1 9-1 10-6 10-8 12-11 10-11 7-9 17-17 16-12 17-10 12-6 11-3 8-1h11l9 3 5 5 3 6-1 2-8-5-3-1h-14l-12 3-16 8-12 8-11 9-9 9-10 13-8 14-2 7v8l2 5 6 1 14-7 11-9 13-11 37-37 4-5 6-4h6l8 4-1 5-6 9-7 14-5 17-1 7v10l3 6 2 1h7l11-6 11-9 12-11 7-7 9-11 5-4h2l-1 5-8 11-12 13-9 9-14 11-14 7-4 1h-13l-6-4-4-5-1-3v-20l3-15 2-5-5 5-14 15-12 12-13 10-11 5-4 1h-12l-9-6-8-9-2-11-8 7-7 7-13 10-8 4-15 3-8-2-6-5-3-6v-20l5-19 8-19 2-3-14 8-11 9-12 11-9 9-9 11-9 3-3-3 1-9 7-16 11-21 3-8v-3l-7 1-13 9-10 9-9 11-12 15-14 19-12 14-11 5-5 1-1-3 7-21 12-34-3 3-7 9-12 13-14 14-14 11-11 5-3 1h-12l-9-3-5-4-3-5-1-4v-17l1-6-15 16-7 7-12 9-12 6-9 2h-11l-6-3-5-6-3-7-1-6v-21l4-23 1-5-31-3-8-1-11 12-9 11-12 13-7 8-23 23-14 11-10 7-16 8-13 4-5 1h-22l-11-3-10-5-8-8-4-10v-15l4-1 1 1 2 14 6 8 8 4 8 2h15l16-3 16-6 14-8 14-11 14-12 17-17 7-8 9-9 7-8 3-5-36-4-14-1h-24l-16 3-12 6-7 6-6 10-1 3v10l1 6h-5l-4-6-1-4v-10l2-14 5-10 4-5 9-6 8-3 12-2h19l24 3 49 9 4-2 11-13 11-14 12-14 11-14 14-17 13-17 18-22 8-4 4-1h8l1 5-15 28-11 23-9 23-12 36-4 14 22-1 9-2 8-5 5-4h2l-1 6-7 6-12 5-28 2-4 19-2 16v16l2 7 3 3h8l16-8 13-10 12-11 7-7 8-11 14-33 10-22 12-22 10-18 7-11 12-16 11-12 8-8 12-7z" fill="#050405"/>
<path transform="translate(1039,139)" d="m0 0h7l-2 4-9 7 4 2 12 5 5 5 1 5-8-1-20-4h-3l-9 29-11 40 14-4 7-1h8l5 3-3 2h-9l-16 4-7 4-14 33-9 19-13 22-9 12-11 13-15 15-13 9-12 7-11 4-5 1h-13l-11-4-6-5-4-7-1-4v-14l4-12 6-11 7-9 9-10 13-13 14-11 10-7 18-11 25-12 24-9 4-10 12-36 8-20 4-9-31 2-20 3-14 4-12 5-9 6-7 8-2 6v9l3 6 9 8 9 5-1 2-6-1-10-6-8-8-4-9-1-6v-8l3-10 4-6 7-7 14-8 14-5 17-3 10-1h25l18 2 10-7z" fill="#050405"/>
<path transform="translate(1310,221)" d="m0 0h12l8 2 7 6 2 5v20l-6 15-6 11-8 11-11 13-13 13-11 9-11 8-12 5-5 1h-8l-10-3-5-5-3-5-1-6v-29l-8 14-8 10-11 12-11 8-6 2h-15l-6-3-5-5-3-6-1-6v-8l1-7-12 12-11 9-10 7-16 8-14 4-7 1h-9l-14-3-8-4-8-9-2-6v-12l4-13 6-11 11-12 8-8 16-12 13-8 11-5 6-2h16l5 3 4 6 1 4v7l-3 9-9 10-10 8-15 8-21 7-9 1v-4l8-3 16-7 14-9 13-11 6-10v-8l-6-1-8 2-11 6-12 9-12 11-8 9-9 14-5 11-2 7v8l3 6 5 4 3 1h12l15-4 21-10 14-10 12-11 10-12 14-22 10-14 7-9 4-3 11-1 9 3-2 5-8 8-8 10-11 15-10 18-4 12-1 5v11l3 3h8l10-5 10-9 5-5 10-11 16-24 9-15 4-6h11l8 4-1 6-8 16-6 18-2 12v14l4 6 7 1 12-5 12-8 12-11 8-8 11-15 8-14 5-14 1-14-2-9-4-6-4-2-11-1v-3z" fill="#050405"/>
<path transform="translate(984,242)" d="m0 0h3l-3 9-10 23-8 16-8 15-14 21-11 14-11 12-13 9-10 4h-13l-6-4-4-6-1-3v-15l4-11 8-14 10-13 11-12 12-11 14-10 15-9 19-9z" fill="#FEFEFE"/>
<path transform="translate(1635,147)" d="m0 0h8l3 4-1 8-8 16-11 18-14 19-11 14-9 11-11 12-9 10-8 7-12 11-5 2 3-9 12-27 10-19 12-21 13-19 9-11 9-10 12-11z" fill="#FEFEFE"/>
<path transform="translate(1557,147)" d="m0 0h8l2 1v11l-9 17-14 22-9 12-10 13-9 11-9 10-7 8-17 17-11 9h-3l6-16 11-24 13-24 9-15 12-17 12-14 13-13 10-7z" fill="#FEFEFE"/>
<path transform="translate(470,147)" d="m0 0h8l2 1 1 5-5 14-13 22-12 17-10 13-8 10-11 13-11 12-12 12-11 9-5 4-1-3 9-21 17-34 12-20 8-12 10-13 11-12 11-11 7-5z" fill="#FEFEFE"/>
<path transform="translate(1866,365)" d="m0 0h2l-2 6-12 26-12 23-11 15-10 11-9 6-4 2h-9l-5-5-1-8 3-11 9-13 15-15 8-7 16-13 14-11z" fill="#FEFEFE"/>
<path transform="translate(314,174)" d="m0 0 1 2-9 23-12 35-9 31-3 1-32-5v-3l13-17 12-15 12-16 14-19z" fill="#FEFEFE"/>
</svg>
