<?xml version="1.0" encoding="UTF-8"?>
<svg version="1.1" viewBox="0 0 1632 1728" width="1280" height="1280" xmlns="http://www.w3.org/2000/svg">
<path transform="translate(0)" d="m0 0h1632v1728h-1632z" fill="#FDFDFD"/>
<path transform="translate(393,296)" d="m0 0h36l6 9 17 35 11 24 32 68 8 18 8 16 17 35 11 23 16 34 17 35 13 28 19 40 16 34 19 39 14 29 26 56 22 46 13 28 8 16 24 49 13 28 16 34 13 27 22 46 6 12 9 20 22 46 7 16 7 11v2h2l1-5 12-36 16-42 12-31 11-29 15-41 20-54 18-48 11-29 15-41 11-30 26-69 11-30 16-44 9-25 18-48 17-46 16-43 15-41 13-36 11-29 11-28 15-38 7-18 3-10 1-10 5-2h198l1 3-7 8-12 3-21 5-13 5-8 6-10 10-10 16-6 15-7 24-5 29-3 30-2 39-1 27-1 50-1 121v393l1 88 1 37 3 48 4 38 6 36 7 25 5 12 9 13 8 8 14 10 17 9 25 7 6 5-1 4-23 1h-54l-220-2-11-1-3-1-1-3 6-3 24-6 18-6 14-7 10-8 7-8 9-17 9-25 4-18 4-36 3-46 1-25 1-62v-596l1-131v-65l-1-11-7 15-11 27-11 29-11 30-9 25-15 41-10 26-15 40-17 46-26 70-21 57-11 30-13 35-9 24-13 35-16 43-9 24-20 54-14 39-7 19-9 25-9 24-9 25-12 33-16 41-16 43-9 24-14 39-11 28-4 7-4-2-6-9-11-21-11-25-9-19-13-28-14-29-9-20-32-69-11-23-16-34-13-28-24-52-19-41-16-34-15-33-13-26-13-28-16-35-13-28-15-32-9-20-18-38-9-20-13-28-14-29-8-18-19-41-17-36-13-29-25-51-8-17-9-12-3-2 2 8 1 7 1 26v20l-2 11-5 6-6-1-4-4-6-47-4-25-7-26-10-19-8-10-10-8-16-8-23-6-13-4-5-4-1-5z" fill="#202020"/>
<path transform="translate(361,1225)" d="m0 0h10l12 6 4 6 9 29 10 26 14 29 11 18 8 11 9 11 5 5v2h2v2l4 2 9 8 15 10 16 8 11 4 44 11 6 3v2l-13 2-36 1-129-1h-125l-10-5-1-4 24-5 19-6 10-4 12-8 9-10 12-23 5-17 6-28 5-38 3-22v-15l4-7z" fill="#202020"/>
<path transform="translate(1163,1553)" d="m0 0h31l9 3 9 8 2 6v14l-3 13-8 14-2 3h-15l-16-6-2-2-1 16-2 5-2 1h-7l-3-1v-21l1-42 3-8z" fill="#202020"/>
<path transform="translate(504,1553)" d="m0 0 4 1 5 18 7 24v7h3l1-7 4-2 5-2 9-10 3-6v-14l2-8 2-1h7l5 5 2 5 2 11 5 13 6 9 6 10 6-9 3-12 5-28 3-2 7 1 1 3-5 28-4 12-5 9-4 19-1 3-6 1-9-3-3-5-2-12-6-14-7-9-4-5-4 2-3 4-2 5-3 16v7l1 8-4 3-3 1h-13l-5-4-2-5-1-13-11-27-4-16v-7l3-3z" fill="#202020"/>
<path transform="translate(290,893)" d="m0 0 4 2 19 19 8 6 2 2 1-5h2v5l3-1 1 5 4 10 6 11 5 6 9 15 10 14 24 34 12 15 36 51 11 18 10 16 10 18 8 18 10 32 3 15 3 9-1 4-3 2h-9l-6-4-2-3 1-4 3-4 1-4v-9l-4-17-7-22-7-16-11-20-12-19-9-14-12-17-14-19-12-16-15-22-8-12-24-34-2-1 4 31 3 25v6l-5-1-2-6-5-39-1-4 3-2-2-13-4-10-10-20-13-13-8-7-8-10z" fill="#202020"/>
<path transform="translate(193,754)" d="m0 0 5 2 17 16 9 10 11 14 8 10 10 13 11 12 10 10 16 14 4 4v2l4 2 12 12 12 9 5-5 1 9 6 7 7 8 10 10 8 7 12 10 9 7 11 9 2 1v2l5 2 7 7 12 7 8 7 4 3-1 3-6-1-11-6-22-18-13-11-10-8-10-9-8-7-11-10-8-5v8h-1l-3-12-5-8-10-8-20-18-12-11-22-18-10-9-7-7-7-8-13-15-11-14-14-21z" fill="#202020"/>
<path transform="translate(402,1553)" d="m0 0h29l1 1v10l-1 1-38 1-1 3v9l3 3v2l5 1 29 1 1 2-1 8-1 1-32 3-3 3h-2l1 10 3 3 7 2 9 1 21 1 2 2v5l-3 3-10 2h-14l-21-2-7-4-1-2v-34l2-24 3-9 4-2z" fill="#202020"/>
<path transform="translate(685,1553)" d="m0 0h37l8 1v8l-1 1-29 1-11 1-2 1-1 4v8l2 7 16-1h15l3 1v8l-3 3-7 2h-18l-6-1-2 2v12l2 4 8 3 7 1 28 2 3 2-1 5-5 3-5 1h-15l-18-1-12-3-3-4-1-25v-26l3-18 1-1z" fill="#202020"/>
<path transform="translate(1046,1553)" d="m0 0h34l4 2-1 7-25 1-14 2-3 2v18h38l-1 8-3 3-16 2h-12l-3-2h-4v15l4 4 7 2 33 3 3 3-2 5-6 3h-20l-20-2-8-3-2-8-1-9v-16l-1-15 3-19 4-4z" fill="#202020"/>
<path transform="translate(269,1552)" d="m0 0h16l17 1 5 3 3 5-1 37-2 17-4 8-5 4-11 3h-18l-6-2-2-1v-6l4-3 4-1 14-1 8-3 3-2 1-4v-37l-9-4-17-6-2-2v-5z" fill="#202020"/>
<path transform="translate(1337,1552)" d="m0 0 3 1 2 3-1 6-3 6-12 17-12 18v21l-2 4h-11l-2-1v-19l-5-16-8-13-8-14-5-9v-2h11l4 2 8 18 7 12 3 2 10-11 12-17 4-5z" fill="#202020"/>
<path transform="translate(275,784)" d="m0 0 7 1 12 20 9 11 5 5 6 7 7 6 2 1v-12l-2 1 1-4 5-14 1-3h2v14l-2 16v6l2 3 3 14 4 8 10 6 16 13 15 11 18 11 3 2v3l-6-1-16-8-11-8-13-10-11-7-11-5-3-5-2-1v8h-1l-2-14-4-9-6-9-10-11-18-22-8-15-3-5z" fill="#202020"/>
<path transform="translate(807,1551)" d="m0 0 4 1 1 1v46l1 19 15 1h15l8-1 1 1v7l-3 3-8 1h-41l-1-1v-75z" fill="#202020"/>
<path transform="translate(361,673)" d="m0 0 3 1 1 2 2 24 3 2-1 9-1 1v7l7 31 4 23 4 17 3 8-5 7-10 8-4 9-1 6v12l3 9 5 2v10l-5-1-8-7h-5l-2-2 2-10 5-21 1-14 2-2 12-3 5-2-1-9-5-12-5-26-5-15-3-5-8-7-2-5-4-3 1-2h5l8-8 1-8-3-20v-5z" fill="#232323"/>
<path transform="translate(918,1552)" d="m0 0h6l2 1 1 66h40l1 5-3 4-4 1h-47v-36l1-31 1-9z" fill="#202020"/>
<path transform="translate(1176,1561)" d="m0 0h8l10 3 5 4 3 6v13l-2 6-4 3-11 3-13-1-4-2-3-7-1-14 2-8 4-4z" fill="#FEFEFE"/>
<path transform="translate(1205,1615)" d="m0 0 6 1 2 4-1 7-8 3-5-1 3-9 1-4z" fill="#202020"/>
</svg>
